<svg xmlns="http://www.w3.org/2000/svg" viewBox="0 0 1916 640" role="img" aria-label="kirken.dk — find kirker i hele Danmark">
  <g fill="#F5ECDC">
    <path d="M 200 560 C 106.49999999999999 453.0, 30 376.5, 30 300 A 170 170 0 1 1 370 300 C 370 376.5, 293.5 453.0, 200 560 Z"/>
    <g transform="translate(440.000 380.000) scale(0.32000 -0.32000)"><path d="M22 0V10L37 15Q71 26 71 64V599Q71 619 63.0 629.0Q55 639 35 645L22 648V658L205 701L217 692L214 552V64Q214 24 247 14L261 10V0ZM393 0 215 250 400 421Q413 433 415.5 446.5Q418 460 398 466L381 471V481H530V471L500 463Q478 456 464.5 446.5Q451 437 432 420L320 315L499 66Q515 44 529.0 32.0Q543 20 565 12L569 10V0Z"/></g>
<g transform="translate(626.240 380.000) scale(0.32000 -0.32000)"><path d="M140 548Q106 548 82.5 569.5Q59 591 59 624Q59 658 82.5 679.0Q106 700 140 700Q174 700 197.0 679.0Q220 658 220 624Q220 591 197.0 569.5Q174 548 140 548ZM22 0V10L36 14Q56 20 63.5 32.0Q71 44 71 64V377Q71 398 63.5 408.5Q56 419 36 423L22 426V436L205 495L215 485L212 343V63Q212 43 219.5 31.0Q227 19 246 13L256 10V0Z"/></g>
<g transform="translate(715.840 380.000) scale(0.32000 -0.32000)"><path d="M20 0V10L35 14Q55 20 62.5 32.0Q70 44 70 63V376Q70 398 62.5 408.5Q55 419 35 423L20 427V437L192 495L202 485L211 399V391Q225 419 247.5 442.5Q270 466 297.5 481.0Q325 496 352 496Q390 496 410.0 475.0Q430 454 430 422Q430 388 410.5 369.5Q391 351 364 351Q322 351 290 393L288 395Q278 409 265.0 410.5Q252 412 241 398Q231 389 224.5 376.5Q218 364 212 348V69Q212 29 247 19L279 10V0Z"/></g>
<g transform="translate(856.960 380.000) scale(0.32000 -0.32000)"><path d="M22 0V10L37 15Q71 26 71 64V599Q71 619 63.0 629.0Q55 639 35 645L22 648V658L205 701L217 692L214 552V64Q214 24 247 14L261 10V0ZM393 0 215 250 400 421Q413 433 415.5 446.5Q418 460 398 466L381 471V481H530V471L500 463Q478 456 464.5 446.5Q451 437 432 420L320 315L499 66Q515 44 529.0 32.0Q543 20 565 12L569 10V0Z"/></g>
<g transform="translate(1043.200 380.000) scale(0.32000 -0.32000)"><path d="M271 496Q336 496 382.0 469.5Q428 443 452.5 397.5Q477 352 477 294Q477 283 476.0 271.5Q475 260 472 251H174Q175 143 212.5 95.5Q250 48 324 48Q374 48 405.0 64.0Q436 80 463 111L473 102Q442 47 390.5 16.0Q339 -15 267 -15Q196 -15 141.0 15.5Q86 46 55.0 103.0Q24 160 24 239Q24 321 60.0 378.5Q96 436 152.5 466.0Q209 496 271 496ZM268 476Q239 476 218.5 458.5Q198 441 186.5 396.5Q175 352 174 271H345Q355 380 337.0 428.0Q319 476 268 476Z"/></g>
<g transform="translate(1205.440 380.000) scale(0.32000 -0.32000)"><path d="M20 0V10L34 14Q69 24 69 63V376Q69 398 62.0 408.5Q55 419 35 423L20 427V437L191 495L201 485L209 425Q244 456 288.0 476.0Q332 496 375 496Q441 496 476.5 460.0Q512 424 512 350V62Q512 23 550 13L559 10V0H323V10L336 14Q371 25 371 63V382Q371 446 307 446Q263 446 211 402V62Q211 23 246 13L255 10V0Z"/></g>
<g transform="translate(1390.400 380.000) scale(0.32000 -0.32000)"><path d="M150 -15Q114 -15 89.0 10.0Q64 35 64 70Q64 105 89.0 131.0Q114 157 150 157Q186 157 211.0 131.0Q236 105 236 70Q236 35 211.0 10.0Q186 -15 150 -15Z"/></g>
<g transform="translate(1486.400 380.000) scale(0.32000 -0.32000)"><path d="M232 -15Q173 -15 126.0 11.5Q79 38 51.5 93.5Q24 149 24 236Q24 324 55.0 381.5Q86 439 137.0 467.5Q188 496 248 496Q283 496 315.0 489.0Q347 482 372 468V598Q372 619 365.5 629.0Q359 639 338 643L319 647V657L501 701L512 692L508 552V63Q508 43 515.0 30.5Q522 18 541 13L550 10V0L379 -11L370 25Q343 7 308.5 -4.0Q274 -15 232 -15ZM290 22Q332 22 367 47V444Q330 468 291 468Q243 468 209.0 412.5Q175 357 175 238Q175 119 207.0 70.5Q239 22 290 22Z"/></g>
<g transform="translate(1670.080 380.000) scale(0.32000 -0.32000)"><path d="M22 0V10L37 15Q71 26 71 64V599Q71 619 63.0 629.0Q55 639 35 645L22 648V658L205 701L217 692L214 552V64Q214 24 247 14L261 10V0ZM393 0 215 250 400 421Q413 433 415.5 446.5Q418 460 398 466L381 471V481H530V471L500 463Q478 456 464.5 446.5Q451 437 432 420L320 315L499 66Q515 44 529.0 32.0Q543 20 565 12L569 10V0Z"/></g>
    <g transform="translate(448.000 500.000) scale(0.07400 -0.07400)"><path d="M73 0V700H508V618H173V391H453V311H173V0Z"/></g>
<g transform="translate(488.108 500.000) scale(0.07400 -0.07400)"><path d="M75 0V504H175V0ZM126 599Q97 599 78.5 617.0Q60 635 60 663Q60 690 78.5 707.5Q97 725 126 725Q154 725 173.0 707.5Q192 690 192 663Q192 635 173.0 617.0Q154 599 126 599Z"/></g>
<g transform="translate(506.608 500.000) scale(0.07400 -0.07400)"><path d="M68 0V504H158L164 418Q188 463 232.0 489.5Q276 516 333 516Q393 516 436.0 492.0Q479 468 503.0 419.5Q527 371 527 298V0H427V288Q427 358 396.0 394.0Q365 430 306 430Q267 430 236.0 411.5Q205 393 186.5 357.0Q168 321 168 269V0Z"/></g>
<g transform="translate(550.046 500.000) scale(0.07400 -0.07400)"><path d="M292 -12Q220 -12 165.0 22.5Q110 57 79.5 116.5Q49 176 49 252Q49 329 79.5 388.0Q110 447 165.5 481.5Q221 516 293 516Q352 516 397.0 492.5Q442 469 467 426V720H567V0H477L467 78Q452 55 428.0 34.5Q404 14 370.0 1.0Q336 -12 292 -12ZM308 75Q355 75 391.0 97.0Q427 119 446.5 159.0Q466 199 466 252Q466 305 446.5 344.5Q427 384 391.0 406.5Q355 429 308 429Q263 429 227.0 406.5Q191 384 171.0 344.5Q151 305 151 252Q151 199 171.0 159.0Q191 119 227.0 97.0Q263 75 308 75Z"/></g>
<g transform="translate(597.110 500.000) scale(0.07400 -0.07400)"><path d=""/></g>
<g transform="translate(616.054 500.000) scale(0.07400 -0.07400)"><path d="M385 0 153 276 363 504H484L234 237V312L511 0ZM68 0V720H168V0Z"/></g>
<g transform="translate(655.052 500.000) scale(0.07400 -0.07400)"><path d="M75 0V504H175V0ZM126 599Q97 599 78.5 617.0Q60 635 60 663Q60 690 78.5 707.5Q97 725 126 725Q154 725 173.0 707.5Q192 690 192 663Q192 635 173.0 617.0Q154 599 126 599Z"/></g>
<g transform="translate(673.552 500.000) scale(0.07400 -0.07400)"><path d="M68 0V504H158L167 409Q184 443 211.0 466.5Q238 490 274.5 503.0Q311 516 358 516V410H322Q291 410 263.0 402.5Q235 395 213.5 377.0Q192 359 180.0 328.0Q168 297 168 251V0Z"/></g>
<g transform="translate(701.820 500.000) scale(0.07400 -0.07400)"><path d="M385 0 153 276 363 504H484L234 237V312L511 0ZM68 0V720H168V0Z"/></g>
<g transform="translate(740.818 500.000) scale(0.07400 -0.07400)"><path d="M296 -12Q224 -12 168.0 21.0Q112 54 80.5 113.0Q49 172 49 250Q49 330 80.5 389.5Q112 449 168.0 482.5Q224 516 298 516Q372 516 425.0 483.0Q478 450 507.0 395.5Q536 341 536 275Q536 265 535.5 253.5Q535 242 534 228H122V299H436Q433 362 394.0 397.5Q355 433 297 433Q256 433 222.0 414.5Q188 396 167.5 360.5Q147 325 147 271V243Q147 187 167.5 148.5Q188 110 222.0 90.5Q256 71 296 71Q344 71 375.0 92.0Q406 113 421 149H521Q508 103 477.0 66.5Q446 30 400.5 9.0Q355 -12 296 -12Z"/></g>
<g transform="translate(783.664 500.000) scale(0.07400 -0.07400)"><path d="M68 0V504H158L167 409Q184 443 211.0 466.5Q238 490 274.5 503.0Q311 516 358 516V410H322Q291 410 263.0 402.5Q235 395 213.5 377.0Q192 359 180.0 328.0Q168 297 168 251V0Z"/></g>
<g transform="translate(811.932 500.000) scale(0.07400 -0.07400)"><path d=""/></g>
<g transform="translate(830.876 500.000) scale(0.07400 -0.07400)"><path d="M75 0V504H175V0ZM126 599Q97 599 78.5 617.0Q60 635 60 663Q60 690 78.5 707.5Q97 725 126 725Q154 725 173.0 707.5Q192 690 192 663Q192 635 173.0 617.0Q154 599 126 599Z"/></g>
<g transform="translate(849.376 500.000) scale(0.07400 -0.07400)"><path d=""/></g>
<g transform="translate(868.320 500.000) scale(0.07400 -0.07400)"><path d="M68 0V720H168V422Q193 466 237.5 491.0Q282 516 336 516Q396 516 439.0 491.5Q482 467 505.0 418.5Q528 370 528 297V0H429V286Q429 357 399.0 393.5Q369 430 310 430Q270 430 238.0 411.0Q206 392 187.0 355.5Q168 319 168 267V0Z"/></g>
<g transform="translate(911.832 500.000) scale(0.07400 -0.07400)"><path d="M296 -12Q224 -12 168.0 21.0Q112 54 80.5 113.0Q49 172 49 250Q49 330 80.5 389.5Q112 449 168.0 482.5Q224 516 298 516Q372 516 425.0 483.0Q478 450 507.0 395.5Q536 341 536 275Q536 265 535.5 253.5Q535 242 534 228H122V299H436Q433 362 394.0 397.5Q355 433 297 433Q256 433 222.0 414.5Q188 396 167.5 360.5Q147 325 147 271V243Q147 187 167.5 148.5Q188 110 222.0 90.5Q256 71 296 71Q344 71 375.0 92.0Q406 113 421 149H521Q508 103 477.0 66.5Q446 30 400.5 9.0Q355 -12 296 -12Z"/></g>
<g transform="translate(954.678 500.000) scale(0.07400 -0.07400)"><path d="M68 0V720H168V0Z"/></g>
<g transform="translate(972.216 500.000) scale(0.07400 -0.07400)"><path d="M296 -12Q224 -12 168.0 21.0Q112 54 80.5 113.0Q49 172 49 250Q49 330 80.5 389.5Q112 449 168.0 482.5Q224 516 298 516Q372 516 425.0 483.0Q478 450 507.0 395.5Q536 341 536 275Q536 265 535.5 253.5Q535 242 534 228H122V299H436Q433 362 394.0 397.5Q355 433 297 433Q256 433 222.0 414.5Q188 396 167.5 360.5Q147 325 147 271V243Q147 187 167.5 148.5Q188 110 222.0 90.5Q256 71 296 71Q344 71 375.0 92.0Q406 113 421 149H521Q508 103 477.0 66.5Q446 30 400.5 9.0Q355 -12 296 -12Z"/></g>
<g transform="translate(1015.062 500.000) scale(0.07400 -0.07400)"><path d=""/></g>
<g transform="translate(1034.006 500.000) scale(0.07400 -0.07400)"><path d="M73 0V700H288Q410 700 490.0 657.0Q570 614 608.5 535.5Q647 457 647 349Q647 241 608.5 163.0Q570 85 490.5 42.5Q411 0 288 0ZM173 84H284Q381 84 438.0 116.0Q495 148 519.5 207.5Q544 267 544 349Q544 432 519.5 492.0Q495 552 438.0 584.0Q381 616 284 616H173Z"/></g>
<g transform="translate(1085.362 500.000) scale(0.07400 -0.07400)"><path d="M235 -12Q173 -12 132.0 9.0Q91 30 71.0 65.5Q51 101 51 142Q51 192 77.0 227.5Q103 263 151.0 282.0Q199 301 266 301H397Q397 345 384.0 374.0Q371 403 345.5 417.5Q320 432 281 432Q236 432 204.0 410.5Q172 389 164 347H64Q70 400 100.5 437.5Q131 475 179.0 495.5Q227 516 281 516Q352 516 400.0 491.0Q448 466 472.5 420.5Q497 375 497 312V0H410L402 85Q391 65 376.0 47.0Q361 29 340.5 16.0Q320 3 293.5 -4.5Q267 -12 235 -12ZM254 69Q286 69 312.0 82.0Q338 95 356.5 117.5Q375 140 384.5 168.5Q394 197 395 227V230H276Q233 230 206.5 219.5Q180 209 168.0 191.0Q156 173 156 149Q156 124 167.5 106.5Q179 89 201.0 79.0Q223 69 254 69Z"/></g>
<g transform="translate(1126.580 500.000) scale(0.07400 -0.07400)"><path d="M68 0V504H158L164 418Q188 463 232.0 489.5Q276 516 333 516Q393 516 436.0 492.0Q479 468 503.0 419.5Q527 371 527 298V0H427V288Q427 358 396.0 394.0Q365 430 306 430Q267 430 236.0 411.5Q205 393 186.5 357.0Q168 321 168 269V0Z"/></g>
<g transform="translate(1170.018 500.000) scale(0.07400 -0.07400)"><path d="M68 0V504H158L165 433Q189 472 229.0 494.0Q269 516 319 516Q357 516 388.0 505.5Q419 495 443.0 474.0Q467 453 482 422Q509 466 554.5 491.0Q600 516 651 516Q712 516 756.0 491.5Q800 467 823.0 418.5Q846 370 846 298V0H747V288Q747 358 718.5 394.0Q690 430 635 430Q598 430 569.0 411.0Q540 392 523.5 356.0Q507 320 507 268V0H407V288Q407 358 378.5 394.0Q350 430 295 430Q260 430 231.0 411.0Q202 392 185.0 356.0Q168 320 168 268V0Z"/></g>
<g transform="translate(1237.136 500.000) scale(0.07400 -0.07400)"><path d="M235 -12Q173 -12 132.0 9.0Q91 30 71.0 65.5Q51 101 51 142Q51 192 77.0 227.5Q103 263 151.0 282.0Q199 301 266 301H397Q397 345 384.0 374.0Q371 403 345.5 417.5Q320 432 281 432Q236 432 204.0 410.5Q172 389 164 347H64Q70 400 100.5 437.5Q131 475 179.0 495.5Q227 516 281 516Q352 516 400.0 491.0Q448 466 472.5 420.5Q497 375 497 312V0H410L402 85Q391 65 376.0 47.0Q361 29 340.5 16.0Q320 3 293.5 -4.5Q267 -12 235 -12ZM254 69Q286 69 312.0 82.0Q338 95 356.5 117.5Q375 140 384.5 168.5Q394 197 395 227V230H276Q233 230 206.5 219.5Q180 209 168.0 191.0Q156 173 156 149Q156 124 167.5 106.5Q179 89 201.0 79.0Q223 69 254 69Z"/></g>
<g transform="translate(1278.354 500.000) scale(0.07400 -0.07400)"><path d="M68 0V504H158L167 409Q184 443 211.0 466.5Q238 490 274.5 503.0Q311 516 358 516V410H322Q291 410 263.0 402.5Q235 395 213.5 377.0Q192 359 180.0 328.0Q168 297 168 251V0Z"/></g>
<g transform="translate(1306.622 500.000) scale(0.07400 -0.07400)"><path d="M385 0 153 276 363 504H484L234 237V312L511 0ZM68 0V720H168V0Z"/></g>
  </g>
  <g><rect x="178.0" y="190.0" width="44" height="200" fill="#1F3A2E"/><rect x="135.0" y="270.0" width="130" height="44" fill="#1F3A2E"/></g>
</svg>